HIERARCHY
ROOT Hips
{
  OFFSET 56.6767 101.735 -125.393
  CHANNELS 6 Xposition Yposition Zposition Zrotation Xrotation Yrotation
  JOINT RightUpLeg
  {
    OFFSET -8.9458 -8.66707 0.101652
    CHANNELS 3 Zrotation Xrotation Yrotation
    JOINT RightLeg
    {
      OFFSET 0 -44.4227 1.3727
      CHANNELS 3 Zrotation Xrotation Yrotation
      JOINT RightFoot
      {
        OFFSET 0.253549 -42.0924 -1.46059
        CHANNELS 3 Zrotation Xrotation Yrotation
        JOINT RightToes
        {
          OFFSET 0.04 -4.41509 8.4991
          CHANNELS 3 Zrotation Xrotation Yrotation
          End Site
          {
            OFFSET -0.08 -0.137448 9.77979
          }
        }
      }
    }
  }
  JOINT Spine
  {
    OFFSET 0 11.8905 0
    CHANNELS 3 Zrotation Xrotation Yrotation
    JOINT Spine1
    {
      OFFSET 0 25.6574 0.127663
      CHANNELS 3 Zrotation Xrotation Yrotation
      JOINT HEad
      {
        OFFSET 0 8.73416 0.011341
        CHANNELS 3 Zrotation Xrotation Yrotation
        End Site
        {
          OFFSET -0.29 12.7742 2.51395
        }
      }
      JOINT LeftShoulder1
      {
        OFFSET 8.99 -0.362252 -0.22
        CHANNELS 3 Zrotation Xrotation Yrotation
        JOINT LeftArm
        {
          OFFSET 10.2827 -0.00338 0.322123
          CHANNELS 3 Zrotation Xrotation Yrotation
          JOINT LeftForeArm
          {
            OFFSET 32.7669 0.099144 -1.42434
            CHANNELS 3 Zrotation Xrotation Yrotation
            JOINT LeftHand
            {
              OFFSET 27.5643 0.085362 1.02216
              CHANNELS 3 Zrotation Xrotation Yrotation
              End Site
              {
                OFFSET 16.7443 -0.6 1.50291
              }
            }
          }
        }
      }
      JOINT RightShoulder
      {
        OFFSET -8.99 -0.362252 -0.22
        CHANNELS 3 Zrotation Xrotation Yrotation
        JOINT RightArm
        {
          OFFSET -10.2827 -0.00338 0.322123
          CHANNELS 3 Zrotation Xrotation Yrotation
          JOINT RightForeArm
          {
            OFFSET -32.8971 0.099144 -1.42434
            CHANNELS 3 Zrotation Xrotation Yrotation
            JOINT RightHand
            {
              OFFSET -27.4921 0.085362 1.02216
              CHANNELS 3 Zrotation Xrotation Yrotation
              End Site
              {
                OFFSET -16.6312 -0.6 1.50291
              }
            }
          }
        }
      }
    }
  }
  JOINT LeftUpLeg
  {
    OFFSET 8.9458 -8.66707 0.101652
    CHANNELS 3 Zrotation Xrotation Yrotation
    JOINT LeftLeg
    {
      OFFSET 0 -44.4227 1.3727
      CHANNELS 3 Zrotation Xrotation Yrotation
      JOINT LeftFoot
      {
        OFFSET -0.253549 -42.0924 -1.46059
        CHANNELS 3 Zrotation Xrotation Yrotation
        JOINT LeftToes
        {
          OFFSET -0.04 -4.41509 8.4991
          CHANNELS 3 Zrotation Xrotation Yrotation
          End Site
          {
            OFFSET 0.08 -0.047448 9.77979
          }
        }
      }
    }
  }
}
MOTION
Frames:	19
Frame Time:	0.0166667
41.3174 101.094 35.1266 1.68372 0.889694 -5.92264 -2.22818 4.59887 -4.59415 -1.79807 34.7996 1.19734 5.14097 1.46793 -0.35632 -14.3602 -10.7476 14.2624 0.691808 3.50197 -0.0241891 -1.47968 -3.64769 0.2113 -4.07816 11.7799 8.71571 2.48481e-017 9.93923e-017 -3.18055e-015 -59.7346 -52.367 40.1141 -24.5108 18.3955 -28.5704 0.368473 9.90896 -0.00117926 -13.4106 -0.701627 17.6751 103.085 -28.9138 14.8558 13.3569 16.6195 36.3407 -0.369625 9.91382 0.00119886 -5.22255 -20.6063 -9.9466 -4.26494 14.5464 22.2401 -1.37692 -0.898637 0.0874941 -11.824 17.6619 12.5595 
41.4504 101.168 37.0796 2.36139 0.907383 -5.73825 -3.59197 3.07581 -5.13834 -2.33007 38.1228 1.84976 6.36993 4.91206 -0.572533 -18.7151 -8.19595 18.6134 0.557302 3.56363 -0.2224 -2.59112 -4.03771 0.173784 -4.01468 12.1466 8.71247 -2.48481e-017 -1.98785e-016 -7.95139e-016 -59.5065 -52.4162 39.701 -24.4549 18.5111 -29.1218 0.368473 9.90896 -0.00117926 -13.4023 -0.705884 17.8424 103.55 -29.4372 13.7288 13.2572 16.4782 35.4301 -0.369625 9.91382 0.00119886 -6.05413 -20.1905 -10.1684 -4.84913 16.0985 22.1586 -1.84251 -3.20879 0.0691624 -12.5245 19.7591 13.1828 
41.6056 101.173 38.9109 3.11307 0.835958 -5.6398 -4.97954 1.18138 -6.05174 -3.29233 41.8416 3.89002 6.98011 9.35072 -0.866252 -19.8217 -4.76959 19.8543 0.121431 3.66798 -0.338627 -3.45611 -4.09211 0.152899 -4.03404 12.1342 8.83891 -2.48481e-017 9.93923e-017 7.95139e-016 -59.9966 -52.4445 38.8425 -24.2917 18.7002 -30.1022 0.368473 9.90896 -0.00117926 -13.8617 -0.796424 17.9328 104.205 -29.6832 12.8018 13.1564 16.3254 34.3585 -0.369625 9.91382 0.00119886 -7.06486 -19.495 -8.59196 -4.69109 17.1759 20.278 -1.79344 -4.56005 0.0514056 -12.8118 19.0317 13.5523 
41.768 101.168 40.6448 3.78103 0.70612 -5.65503 -6.2298 -0.977833 -6.91846 -4.77727 45.6562 6.16812 7.34142 14.2142 -1.2054 -19.6949 -1.06378 20.02 -0.404883 3.75033 -0.397912 -4.09558 -3.84823 0.14504 -4.12745 11.9056 9.03917 -1.73937e-016 1.98785e-016 1.59028e-015 -61.0728 -52.4029 37.4956 -24.0891 18.9313 -31.3176 0.368473 9.90896 -0.00117926 -14.3927 -0.893695 17.8636 104.77 -29.6283 12.1142 13.1452 16.1838 33.1238 -0.369625 9.91382 0.00119886 -8.04279 -18.6102 -6.75502 -4.30135 17.9362 18.2491 -1.6614 -5.59675 0.0351324 -12.8352 17.5535 13.7041 
41.9331 101.203 42.2765 4.2304 0.488666 -5.89281 -7.10697 -3.28841 -7.42202 -6.51865 49.346 7.48786 7.73559 19.6824 -1.62194 -20.0885 2.53531 20.6223 -0.902672 3.73143 -0.40307 -4.47986 -3.1799 0.1563 -4.31757 11.4961 9.33117 -4.96962e-017 1.98785e-016 -0 -62.6887 -52.2289 35.634 -23.9023 19.2069 -32.7003 0.368473 9.90896 -0.00117926 -14.7052 -0.937047 17.5454 104.983 -29.11 11.777 13.3588 16.1022 31.7484 -0.369625 9.91382 0.00119886 -8.72458 -17.562 -6.27719 -4.22706 18.361 17.9385 -1.74212 -6.61199 0.0238824 -12.6097 16.8714 13.5063 
42.0832 101.263 43.8485 4.44719 0.276169 -6.19162 -7.61326 -5.67788 -7.52888 -8.15783 52.8979 7.84691 7.87129 23.8269 -1.93203 -19.7034 5.64078 20.3907 -1.32758 3.68634 -0.364865 -4.5912 -2.40828 0.175271 -4.47963 11.0586 9.56918 -4.96962e-017 -3.97569e-016 7.95139e-016 -64.7241 -51.9055 33.2796 -23.7299 19.455 -33.9883 0.368473 9.90896 -0.00117926 -14.8129 -0.935278 17.0509 104.896 -28.4664 11.6064 13.6787 16.0322 30.2484 -0.369625 9.91382 0.00119886 -9.09879 -16.4799 -6.14154 -4.26955 18.6383 18.0845 -1.88602 -7.59137 0.0110154 -12.386 16.3186 13.2932 
42.1999 101.356 45.4036 4.3155 0.164856 -6.44561 -7.54988 -8.04751 -6.913 -8.94813 56.2589 6.41171 7.39641 24.2298 -1.83901 -17.0411 7.76581 17.8086 -1.5536 3.6683 -0.290134 -4.33697 -1.84057 0.192529 -4.47133 10.7483 9.5929 1.98785e-016 0 -0 -67.0422 -51.3961 30.4512 -23.6197 19.6314 -34.8749 0.368473 9.90896 -0.00117926 -14.5902 -0.867227 16.4316 104.391 -27.9587 11.4659 14.0573 15.9431 28.6101 -0.369625 9.91382 0.00119886 -9.04282 -15.52 -5.88723 -4.38377 18.9971 18.0569 -2.05655 -8.6473 -0.0113172 -12.4238 15.6966 13.385 
42.2819 101.466 46.9373 4.01858 0.113354 -6.59636 -7.14996 -10.3797 -6.09609 -9.00483 59.2095 3.71586 6.46439 22.551 -1.53459 -13.9871 8.94511 14.8862 -1.70624 3.66342 -0.193497 -3.91002 -1.39253 0.208214 -4.39413 10.591 9.46637 2.48481e-016 3.97569e-016 -0 -69.5457 -50.6527 27.2113 -23.5411 19.7338 -35.4119 0.368473 9.90896 -0.00117926 -14.1575 -0.760039 15.6628 103.681 -27.6463 11.306 14.4066 15.8294 26.9508 -0.369625 9.91382 0.00119886 -8.7554 -14.577 -5.50134 -4.50883 19.295 17.791 -2.21251 -9.69246 -0.0361928 -12.6461 15.1637 13.6816 
42.3134 101.584 48.4612 3.69663 0.142256 -6.55376 -6.67896 -12.649 -5.46649 -8.70339 61.5607 0.16609 5.02382 19.2463 -1.09943 -12.8597 8.89652 13.7719 -1.87724 3.69177 -0.0814629 -3.4404 -1.1559 0.219269 -4.34989 10.7215 9.22072 -4.96962e-017 -3.97569e-016 -0 -72.0431 -49.6 23.6623 -23.4935 19.7325 -35.5095 0.368473 9.90896 -0.00117926 -13.6453 -0.638523 14.7454 102.992 -27.7091 11.0253 14.5941 15.6691 25.3356 -0.369625 9.91382 0.00119886 -8.37707 -13.6032 -4.63809 -4.54838 19.4433 16.7974 -2.28071 -10.7273 -0.0599044 -13.2481 15.0099 14.3777 
42.3188 101.697 49.9704 3.361 0.162054 -6.30719 -6.16326 -14.7467 -5.12757 -8.04477 63.1126 -3.4918 3.57108 15.5028 -0.685963 -11.892 7.90107 12.7653 -2.04223 3.70476 0.0148169 -3.02355 -0.909981 0.225857 -4.17878 10.9696 8.79168 0 0 -0 -74.5662 -48.277 19.7967 -23.421 19.6474 -35.2887 0.368473 9.90896 -0.00117926 -12.8987 -0.488992 13.6539 102.157 -28.0437 10.6408 14.71 15.5028 23.9096 -0.369625 9.91382 0.00119886 -8.01838 -12.5719 -3.85125 -4.55678 19.498 15.7151 -2.31883 -11.6009 -0.080407 -13.6891 14.6335 14.9116 
42.3133 101.789 51.4675 3.07382 0.0583547 -5.77491 -5.77352 -16.5096 -5.42642 -7.77742 63.6743 -5.69351 2.53921 12.9579 -0.466839 -9.69966 6.07534 10.5395 -2.2169 3.64426 0.0528847 -2.84423 -0.403737 0.226461 -3.70188 11.2018 8.08472 -1.98785e-016 7.95139e-016 -7.95139e-016 -77.1451 -46.7295 15.5218 -23.2205 19.456 -34.7951 0.368473 9.90896 -0.00117926 -11.6943 -0.287523 12.3284 101.003 -28.6315 10.1365 14.8156 15.3728 22.8313 -0.369625 9.91382 0.00119886 -7.79781 -11.412 -3.64063 -4.57482 19.4835 15.096 -2.36494 -12.0747 -0.0925502 -13.2848 13.2789 14.573 
42.3086 101.859 52.9422 2.82868 -0.0742084 -5.08018 -5.48816 -18.0666 -6.06111 -7.74571 63.4651 -6.91741 1.76101 10.7268 -0.335072 -7.43919 3.60308 8.16873 -2.37179 3.55897 0.0600866 -2.76495 0.180082 0.223134 -3.07733 11.4399 7.22129 -2.48481e-016 0 7.95139e-016 -79.5865 -44.8431 11.1703 -23.0113 19.2295 -34.1709 0.368473 9.90896 -0.00117926 -10.3627 -0.088869 10.8735 99.7528 -29.3981 9.50507 14.8945 15.282 22.1184 -0.369625 9.91382 0.00119886 -7.6926 -10.2384 -3.79145 -4.55147 19.4454 14.7179 -2.40303 -12.4131 -0.101537 -12.7032 11.7015 14.0377 
42.3331 101.896 54.3759 2.64376 -0.179332 -4.32119 -5.30749 -19.5101 -6.88851 -7.75242 62.5951 -7.19471 1.25063 8.39851 -0.25521 -5.7227 0.578979 6.34229 -2.48229 3.48331 0.0518689 -2.69432 0.76078 0.216702 -2.41843 11.6709 6.27366 -2.48481e-016 -7.95139e-016 -7.95139e-016 -81.8264 -42.5444 6.94371 -22.9 19.0367 -33.5402 0.368473 9.90896 -0.00117926 -9.24659 0.0466035 9.33576 98.6434 -30.255 8.73412 14.9349 15.2484 21.9052 -0.369625 9.91382 0.00119886 -7.77084 -9.14079 -4.32576 -4.41015 19.4293 14.5721 -2.42337 -12.8106 -0.110272 -12.3835 10.4844 13.7758 
42.352 101.912 55.7954 2.49754 -0.255211 -3.49127 -5.19664 -20.7933 -7.75417 -7.56996 61.0414 -7.28433 0.972576 6.18613 -0.216816 -4.30336 -2.45538 4.78034 -2.54997 3.40196 0.0215049 -2.67887 1.28322 0.209261 -1.69137 11.8664 5.29682 9.93923e-017 -7.95139e-016 -0 -83.6373 -39.9612 3.04176 -22.8415 18.8807 -32.9949 0.368473 9.90896 -0.00117926 -8.11084 0.153512 7.82807 97.454 -31.222 7.81853 14.9766 15.2571 22.0013 -0.369625 9.91382 0.00119886 -7.89121 -8.11452 -5.03769 -4.25794 19.4529 14.5656 -2.44669 -13.2388 -0.120845 -12.1552 9.4316 13.606 
42.3313 101.926 57.2303 2.38821 -0.276378 -2.59022 -5.09762 -21.9062 -8.46915 -7.02873 58.7829 -7.84886 0.946283 4.15265 -0.202802 -3.08563 -4.9411 3.45477 -2.56422 3.30452 -0.0456459 -2.79461 1.63972 0.204048 -0.853398 11.9841 4.38048 5.96354e-016 7.95139e-016 -3.97569e-016 -84.8268 -37.1794 -0.33411 -22.8475 18.7969 -32.6647 0.368473 9.90896 -0.00117926 -6.71402 0.254308 6.4931 95.9259 -32.3201 6.69591 15.0833 15.3026 22.2806 -0.369625 9.91382 0.00119886 -7.96771 -7.18769 -5.75889 -4.18903 19.5472 14.6535 -2.55677 -13.7777 -0.144104 -11.9866 8.70385 13.4795 
42.2976 101.915 58.6544 2.26772 -0.257119 -1.69687 -4.97828 -22.8561 -8.9585 -6.12919 55.8739 -8.90492 1.03746 2.33693 -0.202533 -1.96835 -6.83041 2.2583 -2.53705 3.21065 -0.110389 -2.86236 1.90725 0.198431 -0.0591368 12.0558 3.49581 2.73329e-016 -7.95139e-016 -0 -85.6924 -34.4055 -3.33706 -22.8675 18.7724 -32.5567 0.368473 9.90896 -0.00117926 -5.4153 0.326309 5.2883 94.3984 -33.453 5.51636 15.158 15.3591 22.6878 -0.369625 9.91382 0.00119886 -7.98006 -6.35123 -6.41216 -4.16802 19.7148 14.6832 -2.55534 -14.2972 -0.156835 -11.9187 7.80794 13.4777 
42.2756 101.855 60.0409 2.0574 -0.201151 -0.898258 -4.76224 -23.6609 -9.05268 -4.79391 52.3391 -10.9333 1.11216 0.781125 -0.198567 -0.765525 -7.6328 1.0295 -2.46157 3.14468 -0.122273 -2.63885 2.13326 0.189658 0.512556 12.0947 2.59822 -2.11209e-016 -7.95139e-016 -0 -86.5843 -31.8606 -6.07405 -22.842 18.8059 -32.7481 0.368473 9.90896 -0.00117926 -4.63222 0.342093 4.2138 93.2622 -34.5713 4.4255 15.0749 15.398 23.1875 -0.369625 9.91382 0.00119886 -7.86567 -5.61474 -6.84228 -4.1966 19.9914 14.377 -2.13638 -14.6738 -0.125603 -12.1275 6.10474 13.859 
42.2372 101.772 61.4215 1.84894 -0.115189 -0.169575 -4.50055 -24.2856 -8.83476 -3.64208 48.2112 -12.8039 1.19992 -0.46171 -0.195741 0.339418 -8.13558 -0.0599475 -2.38277 3.08227 -0.129774 -2.39222 2.29865 0.181355 0.983103 12.1143 1.82365 3.92728e-016 7.95139e-016 -1.88302e-017 -87.3002 -29.5229 -8.54865 -22.7997 18.8878 -33.1616 0.368473 9.90896 -0.00117926 -3.95205 0.338671 3.28427 92.1894 -35.57 3.41643 14.9867 15.4236 23.5927 -0.369625 9.91382 0.00119886 -7.69827 -4.94915 -7.11779 -4.24721 20.3103 14.0616 -1.70368 -14.9675 -0.0910927 -12.1444 4.20092 14.0781 
42.1574 101.677 62.8194 1.73082 -0.00286112 0.495821 -4.26533 -24.7014 -8.30603 -2.71649 43.5457 -13.9598 1.29566 -1.30341 -0.192866 1.23165 -9.17804 -0.978139 -2.38301 2.99857 -0.173115 -2.35827 2.40575 0.176653 1.41068 12.1397 1.34729 4.5969e-016 -7.95139e-016 -0 -87.7166 -27.4263 -10.8115 -22.7353 18.9979 -33.7336 0.368473 9.90896 -0.00117926 -2.97889 0.348433 2.49165 90.9004 -36.2812 2.57575 15.0428 15.4307 23.6314 -0.369625 9.91382 0.00119886 -7.54277 -4.37117 -7.31367 -4.31508 20.6684 14.1013 -1.64696 -15.1835 -0.0906895 -11.4818 2.4365 13.4874 
